<mxfile host="app.diagrams.net" modified="2023-03-31T03:26:59.599Z" agent="Mozilla/5.0 (Macintosh; Intel Mac OS X 10.15; rv:109.0) Gecko/20100101 Firefox/111.0" etag="AA-mPPlfUL_o3ftpGawy" version="21.1.2" type="device">
  <diagram name="Page-1" id="psqroSwzFqP37Ym7-oh-">
    <mxGraphModel dx="955" dy="760" grid="1" gridSize="10" guides="1" tooltips="1" connect="1" arrows="1" fold="1" page="1" pageScale="1" pageWidth="850" pageHeight="1100" math="0" shadow="0">
      <root>
        <mxCell id="0" />
        <mxCell id="1" parent="0" />
        <mxCell id="UdfwPqqXEjVV1MeFvrEw-38" value="" style="rounded=0;whiteSpace=wrap;html=1;labelBackgroundColor=#211C12;fillColor=#000000;labelBorderColor=default;strokeWidth=4;strokeColor=#BB9F64;" vertex="1" parent="1">
          <mxGeometry x="10" y="10" width="830" height="530" as="geometry" />
        </mxCell>
        <mxCell id="UdfwPqqXEjVV1MeFvrEw-5" value="OpenMW Installation Directory" style="rounded=0;whiteSpace=wrap;html=1;dashed=1;horizontal=1;verticalAlign=bottom;fontFamily=Lucida Console;fillColor=#4A3F28;fontColor=#F7D284;" vertex="1" parent="1">
          <mxGeometry x="20" y="60" width="810" height="200" as="geometry" />
        </mxCell>
        <mxCell id="UdfwPqqXEjVV1MeFvrEw-4" value="OpenMW Executable (C++)" style="rounded=0;whiteSpace=wrap;html=1;dashed=1;horizontal=1;verticalAlign=bottom;fontFamily=Lucida Console;fillColor=#695939;fontColor=#F7D284;" vertex="1" parent="1">
          <mxGeometry x="40" y="80" width="380" height="150" as="geometry" />
        </mxCell>
        <mxCell id="UdfwPqqXEjVV1MeFvrEw-1" value="&quot;Something Else&quot; - Project Overview" style="text;html=1;strokeColor=none;fillColor=none;align=center;verticalAlign=middle;whiteSpace=wrap;rounded=0;fontSize=28;fontFamily=Comfortaa;fontSource=https%3A%2F%2Ffonts.googleapis.com%2Fcss%3Ffamily%3DComfortaa;fontColor=#BB9F64;" vertex="1" parent="1">
          <mxGeometry x="10" y="20" width="560" height="30" as="geometry" />
        </mxCell>
        <mxCell id="UdfwPqqXEjVV1MeFvrEw-2" value="&lt;div align=&quot;left&quot;&gt;&lt;font face=&quot;Tahoma&quot; color=&quot;#f7d284&quot;&gt;&lt;b&gt;Dialog&lt;/b&gt;&lt;/font&gt;&lt;/div&gt;&lt;div align=&quot;left&quot;&gt;&lt;font face=&quot;Courier New&quot;&gt;onCustomAnswer {&lt;/font&gt;&lt;/div&gt;&lt;div align=&quot;left&quot;&gt;&lt;font face=&quot;Courier New&quot;&gt;&lt;span style=&quot;white-space: pre;&quot;&gt;	&lt;/span&gt;generate_dialogue_json();&lt;/font&gt;&lt;/div&gt;&lt;div align=&quot;left&quot;&gt;&lt;font face=&quot;Courier New&quot;&gt;&lt;span style=&quot;white-space: pre;&quot;&gt;	&lt;/span&gt;popen(&quot;./custom_response &amp;lt;path_to_json&amp;gt;&quot;);&lt;/font&gt;&lt;/div&gt;&lt;div align=&quot;left&quot;&gt;&lt;font face=&quot;Courier New&quot;&gt;&lt;span style=&quot;white-space: pre;&quot;&gt;	&lt;/span&gt;addAnswer(stdout);&lt;br&gt;&lt;/font&gt;&lt;/div&gt;&lt;div align=&quot;left&quot;&gt;&lt;font face=&quot;Courier New&quot;&gt;}&lt;br&gt;&lt;/font&gt;&lt;/div&gt;" style="rounded=0;whiteSpace=wrap;html=1;spacingLeft=0;verticalAlign=top;fillColor=#8F794E;fontColor=#FFFFFF;" vertex="1" parent="1">
          <mxGeometry x="55" y="100" width="350" height="100" as="geometry" />
        </mxCell>
        <mxCell id="UdfwPqqXEjVV1MeFvrEw-6" value="&lt;div&gt;&lt;b&gt;&lt;font face=&quot;Tahoma&quot; color=&quot;#f7d284&quot;&gt;custom_answer&lt;/font&gt;&lt;/b&gt;&lt;/div&gt;&lt;div&gt;- Using json data, craft call to &lt;font face=&quot;Courier New&quot;&gt;ml-interface&lt;/font&gt;&lt;/div&gt;&lt;div&gt;&amp;nbsp; - Choose model&lt;/div&gt;&lt;div&gt;&amp;nbsp; - Create prompt&lt;/div&gt;&lt;div&gt;&amp;nbsp; - Choose conda environment&lt;/div&gt;&lt;div&gt;&amp;nbsp; - Setup authentication keys&lt;br&gt;&lt;/div&gt;&lt;div&gt;&amp;nbsp; - Create modified json&lt;br&gt;&lt;/div&gt;" style="rounded=0;whiteSpace=wrap;html=1;align=left;verticalAlign=top;fillColor=#695939;fontColor=#FFFFFF;" vertex="1" parent="1">
          <mxGeometry x="510" y="100" width="270" height="120" as="geometry" />
        </mxCell>
        <mxCell id="UdfwPqqXEjVV1MeFvrEw-7" value="" style="endArrow=none;html=1;rounded=0;strokeWidth=2;strokeColor=#F7D284;" edge="1" parent="1">
          <mxGeometry width="50" height="50" relative="1" as="geometry">
            <mxPoint x="157.42857142857142" y="168" as="sourcePoint" />
            <mxPoint x="262" y="168" as="targetPoint" />
          </mxGeometry>
        </mxCell>
        <mxCell id="UdfwPqqXEjVV1MeFvrEw-12" value="" style="endArrow=classic;html=1;rounded=0;exitX=0.999;exitY=0.68;exitDx=0;exitDy=0;exitPerimeter=0;strokeColor=#F7D284;" edge="1" parent="1" source="UdfwPqqXEjVV1MeFvrEw-2" target="UdfwPqqXEjVV1MeFvrEw-6">
          <mxGeometry width="50" height="50" relative="1" as="geometry">
            <mxPoint x="430" y="420" as="sourcePoint" />
            <mxPoint x="480" y="370" as="targetPoint" />
          </mxGeometry>
        </mxCell>
        <mxCell id="UdfwPqqXEjVV1MeFvrEw-13" value="&lt;font face=&quot;Courier New&quot;&gt;ml-interface&lt;/font&gt; Repository" style="rounded=0;whiteSpace=wrap;html=1;dashed=1;horizontal=1;verticalAlign=top;fontFamily=Lucida Console;fillColor=#4A3F28;fontColor=#F7D284;" vertex="1" parent="1">
          <mxGeometry x="450" y="280" width="380" height="220" as="geometry" />
        </mxCell>
        <mxCell id="UdfwPqqXEjVV1MeFvrEw-14" value="&lt;div&gt;&lt;font face=&quot;Tahoma&quot; color=&quot;#f7d284&quot;&gt;&lt;b&gt;ml-interface.sh&lt;/b&gt;&lt;/font&gt;&lt;/div&gt;&lt;font face=&quot;Courier New&quot;&gt;conda run -n $ENV_NAME ml-interface.py &quot;$@&quot; &lt;/font&gt;" style="rounded=0;whiteSpace=wrap;html=1;spacingLeft=0;verticalAlign=top;align=left;fillColor=#695939;fontColor=#FFFFFF;" vertex="1" parent="1">
          <mxGeometry x="470" y="310" width="340" height="60" as="geometry" />
        </mxCell>
        <mxCell id="UdfwPqqXEjVV1MeFvrEw-15" value="" style="endArrow=none;html=1;rounded=0;strokeColor=#F7D284;" edge="1" parent="1">
          <mxGeometry width="50" height="50" relative="1" as="geometry">
            <mxPoint x="405" y="168" as="sourcePoint" />
            <mxPoint x="260" y="168" as="targetPoint" />
          </mxGeometry>
        </mxCell>
        <mxCell id="UdfwPqqXEjVV1MeFvrEw-16" value="&lt;div&gt;&lt;font face=&quot;Tahoma&quot; color=&quot;#f7d284&quot;&gt;&lt;b&gt;ml-interface.py&lt;/b&gt;&lt;/font&gt;&lt;/div&gt;&lt;div&gt;&lt;font face=&quot;Courier New&quot;&gt;load_model(&quot;model_name&quot;)&lt;/font&gt;&lt;/div&gt;&lt;div&gt;&lt;font face=&quot;Courier New&quot;&gt;print(run_inference(input_json))&lt;br&gt;&lt;/font&gt;&lt;/div&gt;" style="rounded=0;whiteSpace=wrap;html=1;spacingLeft=0;verticalAlign=top;align=left;fillColor=#695939;fontColor=#FFFFFF;" vertex="1" parent="1">
          <mxGeometry x="470" y="390" width="340" height="70" as="geometry" />
        </mxCell>
        <mxCell id="UdfwPqqXEjVV1MeFvrEw-17" value="" style="endArrow=classic;html=1;rounded=0;strokeColor=#F7D284;" edge="1" parent="1">
          <mxGeometry width="50" height="50" relative="1" as="geometry">
            <mxPoint x="780" y="370" as="sourcePoint" />
            <mxPoint x="780" y="390" as="targetPoint" />
          </mxGeometry>
        </mxCell>
        <mxCell id="UdfwPqqXEjVV1MeFvrEw-18" value="" style="endArrow=classic;html=1;rounded=0;strokeColor=#F7D284;" edge="1" parent="1">
          <mxGeometry width="50" height="50" relative="1" as="geometry">
            <mxPoint x="710" y="220" as="sourcePoint" />
            <mxPoint x="780" y="330" as="targetPoint" />
            <Array as="points">
              <mxPoint x="710" y="250" />
              <mxPoint x="780" y="250" />
              <mxPoint x="780" y="280" />
            </Array>
          </mxGeometry>
        </mxCell>
        <mxCell id="UdfwPqqXEjVV1MeFvrEw-19" value="" style="endArrow=none;html=1;rounded=0;strokeWidth=2;strokeColor=#F7D284;" edge="1" parent="1">
          <mxGeometry width="50" height="50" relative="1" as="geometry">
            <mxPoint x="671" y="138" as="sourcePoint" />
            <mxPoint x="756" y="138" as="targetPoint" />
          </mxGeometry>
        </mxCell>
        <mxCell id="UdfwPqqXEjVV1MeFvrEw-22" value="" style="endArrow=none;html=1;rounded=0;strokeColor=#F7D284;" edge="1" parent="1">
          <mxGeometry width="50" height="50" relative="1" as="geometry">
            <mxPoint x="710" y="220" as="sourcePoint" />
            <mxPoint x="710" y="138" as="targetPoint" />
          </mxGeometry>
        </mxCell>
        <mxCell id="UdfwPqqXEjVV1MeFvrEw-23" value="&lt;div&gt;&lt;b&gt;&lt;font style=&quot;font-size: 23px;&quot;&gt;Google T5&lt;/font&gt;&lt;/b&gt;&lt;/div&gt;" style="rounded=0;whiteSpace=wrap;html=1;align=left;spacingLeft=7;fillColor=#4A3F28;fontColor=#BB9F64;fontFamily=Tahoma;" vertex="1" parent="1">
          <mxGeometry x="100" y="280" width="250" height="90" as="geometry" />
        </mxCell>
        <mxCell id="UdfwPqqXEjVV1MeFvrEw-24" value="Dialogue" style="rounded=0;whiteSpace=wrap;html=1;fillColor=#695939;fontColor=#F7D284;" vertex="1" parent="1">
          <mxGeometry x="230" y="280" width="120" height="30" as="geometry" />
        </mxCell>
        <mxCell id="UdfwPqqXEjVV1MeFvrEw-25" value="Quest" style="rounded=0;whiteSpace=wrap;html=1;fillColor=#695939;fontColor=#F7D284;" vertex="1" parent="1">
          <mxGeometry x="230" y="310" width="120" height="30" as="geometry" />
        </mxCell>
        <mxCell id="UdfwPqqXEjVV1MeFvrEw-26" value="World Events" style="rounded=0;whiteSpace=wrap;html=1;fillColor=#695939;fontColor=#F7D284;" vertex="1" parent="1">
          <mxGeometry x="230" y="340" width="120" height="30" as="geometry" />
        </mxCell>
        <mxCell id="UdfwPqqXEjVV1MeFvrEw-27" value="Trained Weights" style="text;html=1;strokeColor=none;fillColor=none;align=center;verticalAlign=bottom;whiteSpace=wrap;rounded=0;fontStyle=2;fontSize=10;" vertex="1" parent="1">
          <mxGeometry x="245" y="262" width="90" height="20" as="geometry" />
        </mxCell>
        <mxCell id="UdfwPqqXEjVV1MeFvrEw-28" value="" style="endArrow=none;html=1;rounded=0;entryX=0.004;entryY=0.433;entryDx=0;entryDy=0;entryPerimeter=0;strokeWidth=3;strokeColor=#F7D284;" edge="1" parent="1" target="UdfwPqqXEjVV1MeFvrEw-16">
          <mxGeometry width="50" height="50" relative="1" as="geometry">
            <mxPoint x="420" y="420" as="sourcePoint" />
            <mxPoint x="390" y="440" as="targetPoint" />
          </mxGeometry>
        </mxCell>
        <mxCell id="UdfwPqqXEjVV1MeFvrEw-29" value="" style="endArrow=classic;html=1;rounded=0;entryX=1;entryY=0.5;entryDx=0;entryDy=0;strokeColor=#F7D284;" edge="1" parent="1" target="UdfwPqqXEjVV1MeFvrEw-25">
          <mxGeometry width="50" height="50" relative="1" as="geometry">
            <mxPoint x="420" y="420" as="sourcePoint" />
            <mxPoint x="420" y="440" as="targetPoint" />
            <Array as="points">
              <mxPoint x="420" y="325" />
            </Array>
          </mxGeometry>
        </mxCell>
        <mxCell id="UdfwPqqXEjVV1MeFvrEw-30" value="" style="endArrow=classic;html=1;rounded=0;entryX=1;entryY=0.5;entryDx=0;entryDy=0;strokeColor=#F7D284;" edge="1" parent="1" target="UdfwPqqXEjVV1MeFvrEw-24">
          <mxGeometry width="50" height="50" relative="1" as="geometry">
            <mxPoint x="420" y="350" as="sourcePoint" />
            <mxPoint x="440" y="310" as="targetPoint" />
            <Array as="points">
              <mxPoint x="420" y="295" />
            </Array>
          </mxGeometry>
        </mxCell>
        <mxCell id="UdfwPqqXEjVV1MeFvrEw-31" value="" style="endArrow=classic;html=1;rounded=0;entryX=1;entryY=0.5;entryDx=0;entryDy=0;strokeColor=#F7D284;" edge="1" parent="1" target="UdfwPqqXEjVV1MeFvrEw-26">
          <mxGeometry width="50" height="50" relative="1" as="geometry">
            <mxPoint x="420" y="420" as="sourcePoint" />
            <mxPoint x="360" y="420" as="targetPoint" />
            <Array as="points">
              <mxPoint x="420" y="355" />
            </Array>
          </mxGeometry>
        </mxCell>
        <mxCell id="UdfwPqqXEjVV1MeFvrEw-32" value="&lt;font style=&quot;font-size: 16px;&quot;&gt;OpenAI Chat Completion API&lt;br style=&quot;font-size: 16px;&quot;&gt;&lt;/font&gt;" style="rounded=0;whiteSpace=wrap;html=1;align=left;spacingLeft=7;fontSize=16;fontColor=#BB9F64;fontStyle=1;fillColor=#4A3F28;fontFamily=Tahoma;" vertex="1" parent="1">
          <mxGeometry x="100" y="380" width="250" height="40" as="geometry" />
        </mxCell>
        <mxCell id="UdfwPqqXEjVV1MeFvrEw-33" value="" style="endArrow=classic;html=1;rounded=0;entryX=1;entryY=0.5;entryDx=0;entryDy=0;strokeColor=#F7D284;" edge="1" parent="1" target="UdfwPqqXEjVV1MeFvrEw-32">
          <mxGeometry width="50" height="50" relative="1" as="geometry">
            <mxPoint x="420" y="420" as="sourcePoint" />
            <mxPoint x="430" y="450" as="targetPoint" />
            <Array as="points">
              <mxPoint x="420" y="400" />
            </Array>
          </mxGeometry>
        </mxCell>
        <mxCell id="UdfwPqqXEjVV1MeFvrEw-34" value="LLaMA" style="rounded=0;whiteSpace=wrap;html=1;align=right;spacingLeft=7;fontSize=25;fontColor=#BB9F64;fontStyle=1;fillColor=#4A3F28;fontFamily=Tahoma;" vertex="1" parent="1">
          <mxGeometry x="100" y="430" width="250" height="40" as="geometry" />
        </mxCell>
        <mxCell id="UdfwPqqXEjVV1MeFvrEw-35" value="" style="endArrow=classic;html=1;rounded=0;entryX=1;entryY=0.5;entryDx=0;entryDy=0;strokeColor=#F7D284;" edge="1" parent="1" target="UdfwPqqXEjVV1MeFvrEw-34">
          <mxGeometry width="50" height="50" relative="1" as="geometry">
            <mxPoint x="420" y="420" as="sourcePoint" />
            <mxPoint x="450" y="520" as="targetPoint" />
            <Array as="points">
              <mxPoint x="420" y="450" />
            </Array>
          </mxGeometry>
        </mxCell>
        <mxCell id="UdfwPqqXEjVV1MeFvrEw-36" value="&lt;font style=&quot;font-size: 22px;&quot;&gt;Whatever&#39;s Next&lt;br&gt;&lt;/font&gt;" style="rounded=0;whiteSpace=wrap;html=1;align=right;spacingLeft=7;fontSize=25;fontColor=#BB9F64;fontStyle=1;fillColor=#4A3F28;labelBackgroundColor=none;fontFamily=Tahoma;" vertex="1" parent="1">
          <mxGeometry x="100" y="480" width="250" height="40" as="geometry" />
        </mxCell>
        <mxCell id="UdfwPqqXEjVV1MeFvrEw-37" value="" style="endArrow=classic;html=1;rounded=0;entryX=1;entryY=0.5;entryDx=0;entryDy=0;strokeColor=#F7D284;" edge="1" parent="1" target="UdfwPqqXEjVV1MeFvrEw-36">
          <mxGeometry width="50" height="50" relative="1" as="geometry">
            <mxPoint x="420" y="440" as="sourcePoint" />
            <mxPoint x="460" y="530" as="targetPoint" />
            <Array as="points">
              <mxPoint x="420" y="500" />
            </Array>
          </mxGeometry>
        </mxCell>
      </root>
    </mxGraphModel>
  </diagram>
</mxfile>
